<svg xmlns="http://www.w3.org/2000/svg" width="1961" height="719" fill="none"><ellipse cx="1722.88" cy="359.285" fill="url(#a)" opacity=".6" rx="166.318" ry="330.059" transform="rotate(-13.178 1722.88 359.285)"/><path fill="url(#b)" d="M445.785 322.713c176.704 35.566 305.423 136.581 287.501 225.623s-126.222-48.176-302.927-83.743C253.655 429.027-13.903 622.432 4.019 533.39 21.94 444.348 269.08 287.146 445.785 322.713" opacity=".6"/><ellipse cx="1354.01" cy="432.956" fill="url(#c)" opacity=".6" rx="129.91" ry="257.808" transform="rotate(-78.755 1354.01 432.956)"/><ellipse cx="943.683" cy="444.896" fill="url(#d)" opacity=".6" rx="83.777" ry="257.808" transform="rotate(-94.062 943.683 444.896)"/><defs><linearGradient id="a" x1="1752.74" x2="1559.48" y1="182.406" y2="271.959" gradientUnits="userSpaceOnUse"><stop stop-color="#9395FD"/><stop offset=".341" stop-color="#AD217A"/><stop offset=".721" stop-color="#8E1CA4"/><stop offset="1" stop-color="#0C0D7E"/></linearGradient><linearGradient id="b" x1="317.078" x2="302.52" y1="317.765" y2="499.516" gradientUnits="userSpaceOnUse"><stop stop-color="#9395FD"/><stop offset=".341" stop-color="#AD217A"/><stop offset=".721" stop-color="#8E1CA4"/><stop offset="1" stop-color="#0C0D7E"/></linearGradient><linearGradient id="c" x1="1377.34" x2="1226.38" y1="294.797" y2="364.747" gradientUnits="userSpaceOnUse"><stop stop-color="#9395FD"/><stop offset=".341" stop-color="#AD217A"/><stop offset=".721" stop-color="#8E1CA4"/><stop offset="1" stop-color="#0C0D7E"/></linearGradient><linearGradient id="d" x1="958.725" x2="850.164" y1="306.737" y2="339.176" gradientUnits="userSpaceOnUse"><stop stop-color="#9395FD"/><stop offset=".341" stop-color="#AD217A"/><stop offset=".721" stop-color="#8E1CA4"/><stop offset="1" stop-color="#0C0D7E"/></linearGradient></defs></svg>