<svg xmlns="http://www.w3.org/2000/svg" width="45" height="35" fill="none"><path fill="url(#a)" d="M5.892 12.653 0 18.545l11.267 3.666 9.557-9.558z"/><path fill="#0C1517" d="M17.585 15.894 0 18.546l11.267 3.665z" opacity=".2"/><path fill="url(#b)" d="M3.032 5.892 14.3 9.557 23.857 0h-6.6A20.1 20.1 0 0 0 3.032 5.892"/><path fill="#0C1517" d="M20.617 3.24 3.032 5.891 14.3 9.557l6.318-6.318Z" opacity=".2"/><path fill="url(#c)" d="m29.334 15.628-5.77 5.77 11.268 3.665 9.435-9.435z"/><path fill="url(#d)" d="M44.267 15.627H12.768c-5.377 0-9.736-4.359-9.736-9.735h31.499c5.377 0 9.736 4.359 9.736 9.735"/><path fill="#0C1517" d="M44.267 15.628H29.334l-2.586 2.586z" opacity=".2"/><path fill="url(#e)" d="m26.302 28.282-5.77 5.77a19.33 19.33 0 0 0 19.646-4.713l1.056-1.057z"/><path fill="url(#f)" d="M41.234 28.283H9.736C4.359 28.283 0 23.923 0 18.547h31.498a9.735 9.735 0 0 1 9.736 9.736"/><path fill="#0C1517" d="M41.234 28.282H26.302l-2.587 2.586z" opacity=".2"/><defs><linearGradient id="a" x1="3.733" x2="17.091" y1="22.279" y2="8.92" gradientUnits="userSpaceOnUse"><stop stop-color="#67A9F4"/><stop offset="1" stop-color="#1774DE"/></linearGradient><linearGradient id="b" x1="6.765" x2="20.123" y1="9.625" y2="-3.733" gradientUnits="userSpaceOnUse"><stop stop-color="#AB97F8"/><stop offset="1" stop-color="#674CD0"/></linearGradient><linearGradient id="c" x1="27.298" x2="40.534" y1="25.131" y2="11.895" gradientUnits="userSpaceOnUse"><stop stop-color="#AB97F8"/><stop offset="1" stop-color="#674CD0"/></linearGradient><linearGradient id="d" x1="13.758" x2="33.54" y1="20.651" y2=".869" gradientUnits="userSpaceOnUse"><stop stop-color="#674CD0"/><stop offset="1" stop-color="#AB97F8"/></linearGradient><linearGradient id="e" x1="24.265" x2="37.501" y1="37.785" y2="24.549" gradientUnits="userSpaceOnUse"><stop stop-color="#67A9F4"/><stop offset="1" stop-color="#1774DE"/></linearGradient><linearGradient id="f" x1="10.726" x2="30.508" y1="33.306" y2="13.524" gradientUnits="userSpaceOnUse"><stop stop-color="#1774DE"/><stop offset="1" stop-color="#67A9F4"/></linearGradient></defs></svg>